<?xml version="1.0" encoding="UTF-8" standalone="no"?>
<svg
   xmlns:dc="http://purl.org/dc/elements/1.1/"
   xmlns:cc="http://creativecommons.org/ns#"
   xmlns:rdf="http://www.w3.org/1999/02/22-rdf-syntax-ns#"
   xmlns:svg="http://www.w3.org/2000/svg"
   xmlns="http://www.w3.org/2000/svg"
   xmlns:sodipodi="http://sodipodi.sourceforge.net/DTD/sodipodi-0.dtd"
   xmlns:inkscape="http://www.inkscape.org/namespaces/inkscape"
   width="164.32202mm"
   height="80.000114mm"
   viewBox="0 0 164.32202 80.000114"
   version="1.1"
   id="svg8"
   inkscape:version="1.0.2 (e86c870879, 2021-01-15)"
   sodipodi:docname="np_array.svg">
  <defs
     id="defs2">
    <rect
       x="141.24425"
       y="35.574184"
       width="7.2350178"
       height="19.479343"
       id="rect1280" />
    <inkscape:perspective
       sodipodi:type="inkscape:persp3d"
       inkscape:vp_x="-734.19464 : 287.17328 : 1"
       inkscape:vp_y="150.66537 : -648.25483 : 1"
       inkscape:vp_z="1022.8462 : 286.51029 : 1"
       inkscape:persp3d-origin="-31.543122 : 992.83565 : 1"
       id="perspective1060" />
    <inkscape:perspective
       sodipodi:type="inkscape:persp3d"
       inkscape:vp_x="-282.25085 : -338.22482 : 1"
       inkscape:vp_y="113.50168 : 781.24764 : 1"
       inkscape:vp_z="503.58347 : -337.43139 : 1"
       inkscape:persp3d-origin="32.009168 : -1182.7254 : 1"
       id="perspective1044" />
    <inkscape:perspective
       sodipodi:type="inkscape:persp3d"
       inkscape:vp_x="-282.2939 : -346.08693 : 1"
       inkscape:vp_y="113.45863 : 773.38544 : 1"
       inkscape:vp_z="503.54042 : -345.2935 : 1"
       inkscape:persp3d-origin="31.96612 : -1190.5875 : 1"
       id="perspective1028" />
    <inkscape:perspective
       sodipodi:type="inkscape:persp3d"
       inkscape:vp_x="16.221879 : -712.06108 : 1"
       inkscape:vp_y="74.794847 : 14284.632 : 0"
       inkscape:vp_z="2223.0522 : -322.31729 : 1"
       inkscape:persp3d-origin="1293.4406 : -1915.2857 : 1"
       id="perspective984" />
    <inkscape:perspective
       sodipodi:type="inkscape:persp3d"
       inkscape:vp_x="-0.10245399 : 78.456077 : 1"
       inkscape:vp_y="104.60706 : -217.73768 : 1"
       inkscape:vp_z="207.81621 : 78.246147 : 1"
       inkscape:persp3d-origin="83.045505 : 301.89686 : 1"
       id="perspective952" />
    <inkscape:perspective
       sodipodi:type="inkscape:persp3d"
       inkscape:vp_x="126.80739 : -62.977615 : 1"
       inkscape:vp_y="98.89914 : 883.33564 : 1"
       inkscape:vp_z="154.2688 : 83.428617 : 1"
       inkscape:persp3d-origin="98.89914 : -116.66437 : 1"
       id="perspective908" />
  </defs>
  <sodipodi:namedview
     id="base"
     pagecolor="#ffffff"
     bordercolor="#666666"
     borderopacity="1.0"
     inkscape:pageopacity="0.0"
     inkscape:pageshadow="2"
     inkscape:zoom="0.38052633"
     inkscape:cx="443.45209"
     inkscape:cy="234.67511"
     inkscape:document-units="mm"
     inkscape:current-layer="layer1"
     inkscape:document-rotation="0"
     showgrid="false"
     inkscape:window-width="1366"
     inkscape:window-height="741"
     inkscape:window-x="0"
     inkscape:window-y="0"
     inkscape:window-maximized="0"
     fit-margin-top="0"
     fit-margin-left="0"
     fit-margin-right="0"
     fit-margin-bottom="0"
     inkscape:pagecheckerboard="true"
     lock-margins="true">
    <metadata
       id="metadata5">
      <rdf:RDF>
        <cc:Work
           rdf:about="">
          <dc:format>image/svg+xml</dc:format>
          <dc:type
             rdf:resource="http://purl.org/dc/dcmitype/StillImage" />
          <dc:title></dc:title>
        </cc:Work>
      </rdf:RDF>
      <rdf:RDF>
        <cc:Work
           rdf:about="">
          <dc:title></dc:title>
        </cc:Work>
      </rdf:RDF>
    </metadata>
  </sodipodi:namedview>
  <g
     inkscape:label="Capa 1"
     inkscape:groupmode="layer"
     id="layer1"
     transform="translate(-10.043015,-17.914537)"
     style="display:inline">
    <g
       id="g842">
      <path
         id="rect833"
         style="opacity:0.993;fill:#f4a460;stroke:#3b2313;stroke-width:0.370398;stroke-linecap:round;stroke-linejoin:round;stroke-miterlimit:4;stroke-dasharray:2.22239, 0.370398;stroke-dashoffset:0"
         d="M 10.447944,30.607092 H 24.298959 V 44.458107 H 10.447944 Z" />
      <g
         aria-label="1"
         id="text837"
         style="font-style:normal;font-weight:normal;font-size:10.5833px;line-height:1.25;font-family:sans-serif;fill:#000000;fill-opacity:1;stroke:none;stroke-width:0.264583">
        <path
           d="M 15.570723,40.279817 H 17.27604 V 34.39389 l -1.855178,0.372069 v -0.950843 l 1.844843,-0.372069 h 1.043861 v 6.83677 h 1.705317 v 0.878497 h -4.44416 z"
           style="fill:#228b22;stroke:none;stroke-width:0.264583;stroke-opacity:1"
           id="path143" />
      </g>
    </g>
    <g
       id="g850"
       transform="translate(13.851014)">
      <path
         id="rect844"
         style="opacity:0.993;fill:#f4a460;stroke:#3b2313;stroke-width:0.370398;stroke-linecap:round;stroke-linejoin:round;stroke-miterlimit:4;stroke-dasharray:2.22239, 0.370398;stroke-dashoffset:0"
         d="M 10.447944,30.607092 H 24.298959 V 44.458107 H 10.447944 Z" />
      <g
         aria-label="2"
         id="text848"
         style="font-style:normal;font-weight:normal;font-size:10.5833px;line-height:1.25;font-family:sans-serif;fill:#000000;fill-opacity:1;stroke:none;stroke-width:0.264583">
        <path
           d="M 16.289024,40.279817 H 19.9322 v 0.878497 h -4.89891 v -0.878497 q 0.594277,-0.614947 1.617467,-1.648473 1.028358,-1.038693 1.291907,-1.338415 0.50126,-0.563271 0.69763,-0.950843 0.201537,-0.39274 0.201537,-0.769977 0,-0.614947 -0.43408,-1.002519 -0.428913,-0.387572 -1.121375,-0.387572 -0.490925,0 -1.038693,0.170531 -0.542601,0.170532 -1.162716,0.516763 v -1.054196 q 0.63045,-0.253214 1.178218,-0.382404 0.547769,-0.129191 1.00252,-0.129191 1.198889,0 1.912022,0.599445 0.713132,0.599444 0.713132,1.601964 0,0.475422 -0.180866,0.904335 -0.1757,0.423745 -0.645954,1.002519 -0.12919,0.149862 -0.821652,0.868162 -0.692462,0.713132 -1.953363,1.999871 z"
           style="fill:#228b22;stroke-width:0.264583"
           id="path147" />
      </g>
    </g>
    <g
       id="g858"
       transform="translate(27.702028)">
      <path
         id="rect852"
         style="opacity:0.993;fill:#f4a460;stroke:#3b2313;stroke-width:0.370398;stroke-linecap:round;stroke-linejoin:round;stroke-miterlimit:4;stroke-dasharray:2.22239, 0.370398;stroke-dashoffset:0"
         d="M 10.447944,30.607092 H 24.298959 V 44.458107 H 10.447944 Z" />
      <g
         aria-label="3"
         id="text856"
         style="font-style:normal;font-weight:normal;font-size:10.5833px;line-height:1.25;font-family:sans-serif;fill:#000000;fill-opacity:1;stroke:none;stroke-width:0.264583">
        <path
           d="m 18.552444,36.998374 q 0.749306,0.160197 1.167884,0.666624 0.423745,0.506427 0.423745,1.250566 0,1.142045 -0.785479,1.767328 -0.785479,0.625283 -2.232415,0.625283 -0.485757,0 -1.002519,-0.09819 -0.511595,-0.09302 -1.059364,-0.284219 v -1.007688 q 0.434081,0.253214 0.950843,0.382405 0.516763,0.12919 1.080034,0.12919 0.981849,0 1.493445,-0.387572 0.516762,-0.387572 0.516762,-1.126542 0,-0.682127 -0.480589,-1.064531 -0.475422,-0.387572 -1.32808,-0.387572 h -0.899167 v -0.857826 h 0.940508 q 0.769976,0 1.178219,-0.30489 0.408242,-0.310058 0.408242,-0.888832 0,-0.594277 -0.423745,-0.909503 -0.418578,-0.320392 -1.204057,-0.320392 -0.428913,0 -0.919838,0.09302 -0.490924,0.09302 -1.080034,0.289387 v -0.930173 q 0.594277,-0.165364 1.11104,-0.248046 0.52193,-0.08268 0.981849,-0.08268 1.188554,0 1.881016,0.542601 0.692462,0.537433 0.692462,1.457271 0,0.640785 -0.366901,1.085201 -0.366902,0.439249 -1.043861,0.60978 z"
           style="fill:#228b22;stroke-width:0.264583"
           id="path151" />
      </g>
    </g>
    <g
       id="g866"
       transform="translate(51.84362)">
      <path
         id="rect860"
         style="opacity:0.993;fill:#f4a460;stroke:#3b2313;stroke-width:0.370398;stroke-linecap:round;stroke-linejoin:round;stroke-miterlimit:4;stroke-dasharray:2.22239, 0.370398;stroke-dashoffset:0"
         d="M 10.447944,30.607092 H 24.298959 V 44.458107 H 10.447944 Z" />
      <g
         aria-label="1"
         id="text864"
         style="font-style:normal;font-weight:normal;font-size:10.5833px;line-height:1.25;font-family:sans-serif;fill:#000000;fill-opacity:1;stroke:none;stroke-width:0.264583">
        <path
           d="M 15.570723,40.279817 H 17.27604 V 34.39389 l -1.855178,0.372069 v -0.950843 l 1.844843,-0.372069 h 1.043861 v 6.83677 h 1.705317 v 0.878497 h -4.44416 z"
           style="fill:#ff4500;stroke-width:0.264583"
           id="path155" />
      </g>
    </g>
    <g
       id="g874"
       transform="translate(65.694634)">
      <path
         id="rect868"
         style="opacity:0.993;fill:#f4a460;stroke:#3b2313;stroke-width:0.370398;stroke-linecap:round;stroke-linejoin:round;stroke-miterlimit:4;stroke-dasharray:2.22239, 0.370398;stroke-dashoffset:0"
         d="M 10.447944,30.607092 H 24.298959 V 44.458107 H 10.447944 Z" />
      <g
         aria-label="2"
         id="text872"
         style="font-style:normal;font-weight:normal;font-size:10.5833px;line-height:1.25;font-family:sans-serif;fill:#000000;fill-opacity:1;stroke:none;stroke-width:0.264583">
        <path
           d="M 16.289024,40.279817 H 19.9322 v 0.878497 h -4.89891 v -0.878497 q 0.594277,-0.614947 1.617467,-1.648473 1.028358,-1.038693 1.291907,-1.338415 0.50126,-0.563271 0.69763,-0.950843 0.201537,-0.39274 0.201537,-0.769977 0,-0.614947 -0.43408,-1.002519 -0.428913,-0.387572 -1.121375,-0.387572 -0.490925,0 -1.038693,0.170531 -0.542601,0.170532 -1.162716,0.516763 v -1.054196 q 0.63045,-0.253214 1.178218,-0.382404 0.547769,-0.129191 1.00252,-0.129191 1.198889,0 1.912022,0.599445 0.713132,0.599444 0.713132,1.601964 0,0.475422 -0.180866,0.904335 -0.1757,0.423745 -0.645954,1.002519 -0.12919,0.149862 -0.821652,0.868162 -0.692462,0.713132 -1.953363,1.999871 z"
           style="stroke-width:0.264583"
           id="path159" />
      </g>
    </g>
    <g
       id="g882"
       transform="translate(79.545648)">
      <path
         id="rect876"
         style="opacity:0.993;fill:#f4a460;stroke:#3b2313;stroke-width:0.370398;stroke-linecap:round;stroke-linejoin:round;stroke-miterlimit:4;stroke-dasharray:2.22239, 0.370398;stroke-dashoffset:0"
         d="M 10.447944,30.607092 H 24.298959 V 44.458107 H 10.447944 Z" />
      <g
         aria-label="3"
         id="text880"
         style="font-style:normal;font-weight:normal;font-size:10.5833px;line-height:1.25;font-family:sans-serif;fill:#000000;fill-opacity:1;stroke:none;stroke-width:0.264583">
        <path
           d="m 18.552444,36.998374 q 0.749306,0.160197 1.167884,0.666624 0.423745,0.506427 0.423745,1.250566 0,1.142045 -0.785479,1.767328 -0.785479,0.625283 -2.232415,0.625283 -0.485757,0 -1.002519,-0.09819 -0.511595,-0.09302 -1.059364,-0.284219 v -1.007688 q 0.434081,0.253214 0.950843,0.382405 0.516763,0.12919 1.080034,0.12919 0.981849,0 1.493445,-0.387572 0.516762,-0.387572 0.516762,-1.126542 0,-0.682127 -0.480589,-1.064531 -0.475422,-0.387572 -1.32808,-0.387572 h -0.899167 v -0.857826 h 0.940508 q 0.769976,0 1.178219,-0.30489 0.408242,-0.310058 0.408242,-0.888832 0,-0.594277 -0.423745,-0.909503 -0.418578,-0.320392 -1.204057,-0.320392 -0.428913,0 -0.919838,0.09302 -0.490924,0.09302 -1.080034,0.289387 v -0.930173 q 0.594277,-0.165364 1.11104,-0.248046 0.52193,-0.08268 0.981849,-0.08268 1.188554,0 1.881016,0.542601 0.692462,0.537433 0.692462,1.457271 0,0.640785 -0.366901,1.085201 -0.366902,0.439249 -1.043861,0.60978 z"
           style="stroke-width:0.264583"
           id="path163" />
      </g>
    </g>
    <g
       id="g890"
       transform="translate(51.84362,13.851015)">
      <path
         id="rect884"
         style="opacity:0.993;fill:#f4a460;stroke:#3b2313;stroke-width:0.370398;stroke-linecap:round;stroke-linejoin:round;stroke-miterlimit:4;stroke-dasharray:2.22239, 0.370398;stroke-dashoffset:0"
         d="M 10.447944,30.607092 H 24.298959 V 44.458107 H 10.447944 Z" />
      <g
         aria-label="4"
         id="text888"
         style="font-style:normal;font-weight:normal;font-size:10.5833px;line-height:1.25;font-family:sans-serif;fill:#000000;fill-opacity:1;stroke:none;stroke-width:0.264583">
        <path
           d="M 18.257889,34.352549 15.6224,38.471148 h 2.635489 z m -0.273884,-0.909502 h 1.312577 v 5.028101 h 1.100705 v 0.868161 h -1.100705 v 1.819005 h -1.038693 v -1.819005 h -3.48298 v -1.007687 z"
           style="fill:#228b22;stroke-width:0.264583"
           id="path167" />
      </g>
    </g>
    <g
       id="g898"
       transform="translate(65.694634,13.851015)">
      <path
         id="rect892"
         style="opacity:0.993;fill:#f4a460;stroke:#3b2313;stroke-width:0.370398;stroke-linecap:round;stroke-linejoin:round;stroke-miterlimit:4;stroke-dasharray:2.22239, 0.370398;stroke-dashoffset:0"
         d="M 10.447944,30.607092 H 24.298959 V 44.458107 H 10.447944 Z" />
      <g
         aria-label="5"
         id="text896"
         style="font-style:normal;font-weight:normal;font-size:10.5833px;line-height:1.25;font-family:sans-serif;fill:#000000;fill-opacity:1;stroke:none;stroke-width:0.264583">
        <path
           d="m 15.400192,33.443047 h 4.097928 v 0.878497 h -3.141917 v 1.891351 q 0.227375,-0.07751 0.454751,-0.113688 0.227375,-0.04134 0.454751,-0.04134 1.291907,0 2.04638,0.707965 0.754474,0.707965 0.754474,1.91719 0,1.245398 -0.775144,1.93786 -0.775144,0.687294 -2.185906,0.687294 -0.485757,0 -0.992185,-0.08268 -0.501259,-0.08268 -1.038693,-0.248046 v -1.049028 q 0.465087,0.253213 0.961179,0.377236 0.496092,0.124023 1.049028,0.124023 0.894,0 1.41593,-0.470254 0.52193,-0.470254 0.52193,-1.276403 0,-0.80615 -0.52193,-1.276404 -0.52193,-0.470254 -1.41593,-0.470254 -0.418578,0 -0.837155,0.09302 -0.413411,0.09302 -0.847491,0.289387 z"
           style="fill:#228b22;stroke-width:0.264583"
           id="path171" />
      </g>
    </g>
    <g
       id="g906"
       transform="translate(79.545648,13.851015)">
      <path
         id="rect900"
         style="opacity:0.993;fill:#f4a460;stroke:#3b2313;stroke-width:0.370398;stroke-linecap:round;stroke-linejoin:round;stroke-miterlimit:4;stroke-dasharray:2.22239, 0.370398;stroke-dashoffset:0"
         d="M 10.447944,30.607092 H 24.298959 V 44.458107 H 10.447944 Z" />
      <g
         aria-label="6"
         id="text904"
         style="font-style:normal;font-weight:normal;font-size:10.5833px;line-height:1.25;font-family:sans-serif;fill:#000000;fill-opacity:1;stroke:none;stroke-width:0.264583">
        <path
           d="m 17.751462,36.884686 q -0.702797,0 -1.116207,0.48059 -0.408243,0.480589 -0.408243,1.317745 0,0.831987 0.408243,1.317744 0.41341,0.48059 1.116207,0.48059 0.702797,0 1.11104,-0.48059 0.41341,-0.485757 0.41341,-1.317744 0,-0.837156 -0.41341,-1.317745 -0.408243,-0.48059 -1.11104,-0.48059 z m 2.072218,-3.271107 v 0.950843 q -0.392739,-0.186035 -0.795814,-0.284219 -0.397907,-0.09819 -0.790647,-0.09819 -1.033525,0 -1.581294,0.697629 -0.542601,0.69763 -0.620115,2.108392 0.30489,-0.449584 0.764809,-0.687294 0.459918,-0.242879 1.012855,-0.242879 1.162716,0 1.834507,0.707965 0.676959,0.702797 0.676959,1.91719 0,1.188554 -0.702797,1.906854 -0.702797,0.7183 -1.870681,0.7183 -1.338415,0 -2.04638,-1.02319 -0.707965,-1.028358 -0.707965,-2.976553 0,-1.82934 0.868161,-2.914542 0.868162,-1.090369 2.3306,-1.090369 0.39274,0 0.790647,0.07751 0.403075,0.07752 0.837155,0.232544 z"
           style="fill:#228b22;stroke-width:0.264583"
           id="path175" />
      </g>
    </g>
    <g
       id="g966"
       style="opacity:0.993;fill:#f4a460;stroke:#3b2313;stroke-width:2.13543;stroke-linecap:round;stroke-linejoin:round;stroke-miterlimit:4;stroke-dasharray:12.8126, 2.13543;stroke-dashoffset:0">
      <path
         d="m 1536.7767,-216.87471 76.0408,-51.69279 -0.544,103.90524 -76.0148,46.71278 z"
         style="fill:#e9e9ff;fill-rule:evenodd;stroke:none;stroke-linejoin:round"
         id="path178" />
      <path
         d="m 1461.4734,-285.77447 -0.5739,109.62348 75.3592,58.20151 0.518,-98.92523 z"
         style="fill:#353564;fill-rule:evenodd;stroke:none;stroke-linejoin:round"
         id="path180" />
      <path
         d="m 1461.4734,-285.77447 80.5018,-61.46129 70.8423,78.66826 -76.0408,51.69279 z"
         style="fill:#4d4d9f;fill-rule:evenodd;stroke:none;stroke-linejoin:round"
         id="path182" />
      <path
         d="m 1460.8995,-176.15099 80.4695,-55.31245 70.9045,66.80118 -76.0148,46.71278 z"
         style="fill:#afafde;fill-rule:evenodd;stroke:none;stroke-linejoin:round"
         id="path184" />
      <path
         d="m 1541.9752,-347.23576 -0.6062,115.77232 70.9045,66.80118 0.544,-103.90524 z"
         style="fill:#d7d7ff;fill-rule:evenodd;stroke:none;stroke-linejoin:round"
         id="path186" />
      <path
         d="m 1461.4734,-285.77447 80.5018,-61.46129 -0.6062,115.77232 -80.4695,55.31245 z"
         style="fill:#8686bf;fill-rule:evenodd;stroke:none;stroke-linejoin:round"
         id="path188" />
    </g>
    <g
       id="g1068"
       transform="translate(122.17885,-2.1166667)">
      <path
         id="rect1062"
         style="opacity:0.993;fill:#f4a460;stroke:#3b2313;stroke-width:0.370398;stroke-linecap:round;stroke-linejoin:round;stroke-miterlimit:4;stroke-dasharray:2.22239, 0.370398;stroke-dashoffset:0"
         d="M 10.447944,30.607092 H 24.298959 V 44.458107 H 10.447944 Z" />
      <g
         aria-label="1"
         id="text1066"
         style="font-style:normal;font-weight:normal;font-size:10.5833px;line-height:1.25;font-family:sans-serif;fill:#000000;fill-opacity:1;stroke:none;stroke-width:0.264583">
        <path
           d="M 15.570723,40.279817 H 17.27604 V 34.39389 l -1.855178,0.372069 v -0.950843 l 1.844843,-0.372069 h 1.043861 v 6.83677 h 1.705317 v 0.878497 h -4.44416 z"
           style="fill:#8b0000;stroke-width:0.264583"
           id="path193" />
      </g>
    </g>
    <g
       id="g1076"
       transform="translate(136.02986,-2.1166667)">
      <path
         id="rect1070"
         style="opacity:0.993;fill:#f4a460;stroke:#3b2313;stroke-width:0.370398;stroke-linecap:round;stroke-linejoin:round;stroke-miterlimit:4;stroke-dasharray:2.22239, 0.370398;stroke-dashoffset:0"
         d="M 10.447944,30.607092 H 24.298959 V 44.458107 H 10.447944 Z" />
      <g
         aria-label="1"
         id="text1074"
         style="font-style:normal;font-weight:normal;font-size:10.5833px;line-height:1.25;font-family:sans-serif;fill:#000000;fill-opacity:1;stroke:none;stroke-width:0.264583">
        <path
           d="M 15.570723,40.279817 H 17.27604 V 34.39389 l -1.855178,0.372069 v -0.950843 l 1.844843,-0.372069 h 1.043861 v 6.83677 h 1.705317 v 0.878497 h -4.44416 z"
           style="stroke-width:0.264583"
           id="path197" />
      </g>
    </g>
    <g
       id="g1084"
       transform="translate(149.88088,-2.1166667)">
      <path
         id="rect1078"
         style="opacity:0.993;fill:#f4a460;stroke:#3b2313;stroke-width:0.370398;stroke-linecap:round;stroke-linejoin:round;stroke-miterlimit:4;stroke-dasharray:2.22239, 0.370398;stroke-dashoffset:0"
         d="M 10.447944,30.607092 H 24.298959 V 44.458107 H 10.447944 Z" />
      <g
         aria-label="1"
         id="text1082"
         style="font-style:normal;font-weight:normal;font-size:10.5833px;line-height:1.25;font-family:sans-serif;fill:#000000;fill-opacity:1;stroke:none;stroke-width:0.264583">
        <path
           d="M 15.570723,40.279817 H 17.27604 V 34.39389 l -1.855178,0.372069 v -0.950843 l 1.844843,-0.372069 h 1.043861 v 6.83677 h 1.705317 v 0.878497 h -4.44416 z"
           style="stroke-width:0.264583"
           id="path201" />
      </g>
    </g>
    <g
       id="g1108"
       transform="translate(149.88088,11.734347)">
      <path
         id="rect1102"
         style="opacity:0.993;fill:#f4a460;stroke:#3b2313;stroke-width:0.370398;stroke-linecap:round;stroke-linejoin:round;stroke-miterlimit:4;stroke-dasharray:2.22239, 0.370398;stroke-dashoffset:0"
         d="M 10.447944,30.607092 H 24.298959 V 44.458107 H 10.447944 Z" />
      <g
         aria-label="1"
         id="text1106"
         style="font-style:normal;font-weight:normal;font-size:10.5833px;line-height:1.25;font-family:sans-serif;fill:#000000;fill-opacity:1;stroke:none;stroke-width:0.264583">
        <path
           d="M 15.570723,40.279817 H 17.27604 V 34.39389 l -1.855178,0.372069 v -0.950843 l 1.844843,-0.372069 h 1.043861 v 6.83677 h 1.705317 v 0.878497 h -4.44416 z"
           style="stroke-width:0.264583"
           id="path205" />
      </g>
    </g>
    <g
       id="g1116"
       transform="translate(116.94529,4.9670926)">
      <path
         id="rect1110"
         style="opacity:0.993;fill:#f4a460;stroke:#3b2313;stroke-width:0.370398;stroke-linecap:round;stroke-linejoin:round;stroke-miterlimit:4;stroke-dasharray:2.22239, 0.370398;stroke-dashoffset:0"
         d="M 10.447944,30.607092 H 24.298959 V 44.458107 H 10.447944 Z" />
      <g
         aria-label="1"
         id="text1114"
         style="font-style:normal;font-weight:normal;font-size:10.5833px;line-height:1.25;font-family:sans-serif;fill:#000000;fill-opacity:1;stroke:none;stroke-width:0.264583">
        <path
           d="M 15.570723,40.279817 H 17.27604 V 34.39389 l -1.855178,0.372069 v -0.950843 l 1.844843,-0.372069 h 1.043861 v 6.83677 h 1.705317 v 0.878497 h -4.44416 z"
           style="stroke-width:0.264583"
           id="path209" />
      </g>
    </g>
    <g
       id="g1124"
       transform="translate(130.7963,4.9670926)">
      <path
         id="rect1118"
         style="opacity:0.993;fill:#f4a460;stroke:#3b2313;stroke-width:0.370398;stroke-linecap:round;stroke-linejoin:round;stroke-miterlimit:4;stroke-dasharray:2.22239, 0.370398;stroke-dashoffset:0"
         d="M 10.447944,30.607092 H 24.298959 V 44.458107 H 10.447944 Z" />
      <g
         aria-label="1"
         id="text1122"
         style="font-style:normal;font-weight:normal;font-size:10.5833px;line-height:1.25;font-family:sans-serif;fill:#000000;fill-opacity:1;stroke:none;stroke-width:0.264583">
        <path
           d="M 15.570723,40.279817 H 17.27604 V 34.39389 l -1.855178,0.372069 v -0.950843 l 1.844843,-0.372069 h 1.043861 v 6.83677 h 1.705317 v 0.878497 h -4.44416 z"
           style="stroke-width:0.264583"
           id="path213" />
      </g>
    </g>
    <g
       id="g1132"
       transform="translate(144.64732,4.9670926)">
      <path
         id="rect1126"
         style="opacity:0.993;fill:#f4a460;stroke:#3b2313;stroke-width:0.370398;stroke-linecap:round;stroke-linejoin:round;stroke-miterlimit:4;stroke-dasharray:2.22239, 0.370398;stroke-dashoffset:0"
         d="M 10.447944,30.607092 H 24.298959 V 44.458107 H 10.447944 Z" />
      <g
         aria-label="1"
         id="text1130"
         style="font-style:normal;font-weight:normal;font-size:10.5833px;line-height:1.25;font-family:sans-serif;fill:#000000;fill-opacity:1;stroke:none;stroke-width:0.264583">
        <path
           d="M 15.570723,40.279817 H 17.27604 V 34.39389 l -1.855178,0.372069 v -0.950843 l 1.844843,-0.372069 h 1.043861 v 6.83677 h 1.705317 v 0.878497 h -4.44416 z"
           style="stroke-width:0.264583"
           id="path217" />
      </g>
    </g>
    <g
       id="g1156"
       transform="translate(144.64732,18.818108)">
      <path
         id="rect1150"
         style="opacity:0.993;fill:#f4a460;stroke:#3b2313;stroke-width:0.370398;stroke-linecap:round;stroke-linejoin:round;stroke-miterlimit:4;stroke-dasharray:2.22239, 0.370398;stroke-dashoffset:0"
         d="M 10.447944,30.607092 H 24.298959 V 44.458107 H 10.447944 Z" />
      <g
         aria-label="1"
         id="text1154"
         style="font-style:normal;font-weight:normal;font-size:10.5833px;line-height:1.25;font-family:sans-serif;fill:#000000;fill-opacity:1;stroke:none;stroke-width:0.264583">
        <path
           d="M 15.570723,40.279817 H 17.27604 V 34.39389 l -1.855178,0.372069 v -0.950843 l 1.844843,-0.372069 h 1.043861 v 6.83677 h 1.705317 v 0.878497 h -4.44416 z"
           style="stroke-width:0.264583"
           id="path221" />
      </g>
    </g>
    <g
       id="g1164"
       transform="translate(116.94529,4.9670926)">
      <path
         id="rect1158"
         style="opacity:0.993;fill:#f4a460;stroke:#3b2313;stroke-width:0.370398;stroke-linecap:round;stroke-linejoin:round;stroke-miterlimit:4;stroke-dasharray:2.22239, 0.370398;stroke-dashoffset:0"
         d="M 10.447944,30.607092 H 24.298959 V 44.458107 H 10.447944 Z" />
      <g
         aria-label="1"
         id="text1162"
         style="font-style:normal;font-weight:normal;font-size:10.5833px;line-height:1.25;font-family:sans-serif;fill:#000000;fill-opacity:1;stroke:none;stroke-width:0.264583">
        <path
           d="M 15.570723,40.279817 H 17.27604 V 34.39389 l -1.855178,0.372069 v -0.950843 l 1.844843,-0.372069 h 1.043861 v 6.83677 h 1.705317 v 0.878497 h -4.44416 z"
           style="fill:#8b0000;stroke-width:0.264583"
           id="path225" />
      </g>
    </g>
    <g
       id="g1172"
       transform="translate(130.7963,4.9670926)">
      <path
         id="rect1166"
         style="opacity:0.993;fill:#f4a460;stroke:#3b2313;stroke-width:0.370398;stroke-linecap:round;stroke-linejoin:round;stroke-miterlimit:4;stroke-dasharray:2.22239, 0.370398;stroke-dashoffset:0"
         d="M 10.447944,30.607092 H 24.298959 V 44.458107 H 10.447944 Z" />
      <g
         aria-label="1"
         id="text1170"
         style="font-style:normal;font-weight:normal;font-size:10.5833px;line-height:1.25;font-family:sans-serif;fill:#000000;fill-opacity:1;stroke:none;stroke-width:0.264583">
        <path
           d="M 15.570723,40.279817 H 17.27604 V 34.39389 l -1.855178,0.372069 v -0.950843 l 1.844843,-0.372069 h 1.043861 v 6.83677 h 1.705317 v 0.878497 h -4.44416 z"
           style="stroke-width:0.264583"
           id="path229" />
      </g>
    </g>
    <g
       id="g1180"
       transform="translate(144.64732,4.9670926)">
      <path
         id="rect1174"
         style="opacity:0.993;fill:#f4a460;stroke:#3b2313;stroke-width:0.370398;stroke-linecap:round;stroke-linejoin:round;stroke-miterlimit:4;stroke-dasharray:2.22239, 0.370398;stroke-dashoffset:0"
         d="M 10.447944,30.607092 H 24.298959 V 44.458107 H 10.447944 Z" />
      <g
         aria-label="1"
         id="text1178"
         style="font-style:normal;font-weight:normal;font-size:10.5833px;line-height:1.25;font-family:sans-serif;fill:#000000;fill-opacity:1;stroke:none;stroke-width:0.264583">
        <path
           d="M 15.570723,40.279817 H 17.27604 V 34.39389 l -1.855178,0.372069 v -0.950843 l 1.844843,-0.372069 h 1.043861 v 6.83677 h 1.705317 v 0.878497 h -4.44416 z"
           style="stroke-width:0.264583"
           id="path233" />
      </g>
    </g>
    <g
       id="g1204"
       transform="translate(144.64732,18.818108)">
      <path
         id="rect1198"
         style="opacity:0.993;fill:#f4a460;stroke:#3b2313;stroke-width:0.370398;stroke-linecap:round;stroke-linejoin:round;stroke-miterlimit:4;stroke-dasharray:2.22239, 0.370398;stroke-dashoffset:0"
         d="M 10.447944,30.607092 H 24.298959 V 44.458107 H 10.447944 Z" />
      <g
         aria-label="1"
         id="text1202"
         style="font-style:normal;font-weight:normal;font-size:10.5833px;line-height:1.25;font-family:sans-serif;fill:#000000;fill-opacity:1;stroke:none;stroke-width:0.264583">
        <path
           d="M 15.570723,40.279817 H 17.27604 V 34.39389 l -1.855178,0.372069 v -0.950843 l 1.844843,-0.372069 h 1.043861 v 6.83677 h 1.705317 v 0.878497 h -4.44416 z"
           style="stroke-width:0.264583"
           id="path237" />
      </g>
    </g>
    <g
       aria-label="1D Array"
       id="text1256"
       style="font-style:normal;font-weight:normal;font-size:8.44768px;line-height:1.25;font-family:sans-serif;fill:#000000;fill-opacity:1;stroke:none;stroke-width:0.211192">
      <path
         d="m 10.162636,25.700619 h 1.361198 v -4.698198 l -1.480819,0.296989 v -0.758971 l 1.47257,-0.296989 h 0.833218 v 5.457169 h 1.361199 v 0.701223 h -3.547366 z"
         style="stroke-width:0.211192"
         id="path240" />
      <path
         d="m 16.151909,20.928174 v 4.788944 h 1.006462 q 1.274577,0 1.86443,-0.577478 0.593977,-0.577478 0.593977,-1.823181 0,-1.237453 -0.593977,-1.810807 -0.589853,-0.577478 -1.86443,-0.577478 z M 15.318691,20.24345 h 1.71181 q 1.790183,0 2.627526,0.746597 0.837343,0.742472 0.837343,2.326412 0,1.59219 -0.841468,2.338786 -0.841468,0.746597 -2.623401,0.746597 h -1.71181 z"
         style="stroke-width:0.211192"
         id="path242" />
      <path
         d="m 26.56714,21.064294 -1.130207,3.064759 h 2.264539 z M 26.096908,20.24345 h 0.944589 l 2.347037,6.158392 h -0.866218 l -0.560978,-1.579815 h -2.77602 l -0.560979,1.579815 h -0.878592 z"
         style="stroke-width:0.211192"
         id="path244" />
      <path
         d="m 32.931775,22.49149 q -0.12787,-0.07425 -0.280489,-0.107246 -0.148495,-0.03712 -0.329988,-0.03712 -0.643476,0 -0.989963,0.420735 -0.342362,0.416609 -0.342362,1.200329 v 2.433658 h -0.763096 v -4.619825 h 0.763096 v 0.717723 q 0.239241,-0.420734 0.622852,-0.622852 0.38361,-0.206242 0.932215,-0.206242 0.07837,0 0.173243,0.01237 0.09487,0.0082 0.210367,0.02887 z"
         style="stroke-width:0.211192"
         id="path246" />
      <path
         d="m 36.256398,22.49149 q -0.12787,-0.07425 -0.280489,-0.107246 -0.148495,-0.03712 -0.329988,-0.03712 -0.643476,0 -0.989962,0.420735 -0.342362,0.416609 -0.342362,1.200329 v 2.433658 H 33.5505 v -4.619825 h 0.763097 v 0.717723 q 0.23924,-0.420734 0.622851,-0.622852 0.38361,-0.206242 0.932215,-0.206242 0.07837,0 0.173243,0.01237 0.09487,0.0082 0.210367,0.02887 z"
         style="stroke-width:0.211192"
         id="path248" />
      <path
         d="m 39.15204,24.079555 q -0.919841,0 -1.274577,0.210367 -0.354737,0.210367 -0.354737,0.717723 0,0.404235 0.26399,0.643476 0.268115,0.235116 0.725973,0.235116 0.631101,0 1.010587,-0.445484 0.38361,-0.449608 0.38361,-1.192079 v -0.169119 z m 1.513817,-0.313488 v 2.635775 h -0.758971 v -0.701223 q -0.259865,0.420734 -0.6476,0.622851 -0.387736,0.197993 -0.948715,0.197993 -0.709473,0 -1.130207,-0.395985 -0.416609,-0.40011 -0.416609,-1.068335 0,-0.779596 0.51973,-1.175581 0.523855,-0.395985 1.559191,-0.395985 h 1.06421 v -0.07425 q 0,-0.523855 -0.346487,-0.808469 -0.342362,-0.288739 -0.965213,-0.288739 -0.395985,0 -0.771346,0.09487 -0.375361,0.09487 -0.721848,0.284614 v -0.701223 q 0.416609,-0.160869 0.80847,-0.239241 0.39186,-0.0825 0.763096,-0.0825 1.002337,0 1.497318,0.51973 0.494981,0.519731 0.494981,1.575691 z"
         style="stroke-width:0.211192"
         id="path250" />
      <path
         d="m 44.151351,26.830826 q -0.321738,0.824969 -0.626976,1.076584 -0.305239,0.251616 -0.816719,0.251616 H 42.101303 V 27.5238 h 0.445484 q 0.313488,0 0.486731,-0.148495 0.173244,-0.148494 0.383611,-0.701223 l 0.13612,-0.346487 -1.868555,-4.545578 h 0.804345 l 1.443695,3.613363 1.443696,-3.613363 h 0.804344 z"
         style="stroke-width:0.211192"
         id="path252" />
    </g>
    <g
       aria-label="2D Array"
       id="text1260"
       style="font-style:normal;font-weight:normal;font-size:8.44768px;line-height:1.25;font-family:sans-serif;fill:#000000;fill-opacity:1;stroke:none;stroke-width:0.211192">
      <path
         d="m 64.5042,23.71113 h 2.908015 v 0.701224 H 63.501863 V 23.71113 q 0.474357,-0.490856 1.291077,-1.315825 0.820843,-0.829094 1.031211,-1.068335 0.400109,-0.449608 0.556853,-0.758971 0.160869,-0.313488 0.160869,-0.614602 0,-0.490856 -0.346487,-0.80022 -0.342362,-0.309363 -0.895091,-0.309363 -0.39186,0 -0.829093,0.13612 -0.433109,0.13612 -0.92809,0.412484 V 18.55095 q 0.503231,-0.202117 0.940464,-0.305238 0.437234,-0.103121 0.80022,-0.103121 0.956964,0 1.526192,0.478482 0.569229,0.478481 0.569229,1.278701 0,0.379486 -0.14437,0.721848 -0.140245,0.338237 -0.515605,0.80022 -0.103121,0.11962 -0.655851,0.692973 -0.552729,0.569229 -1.559191,1.596315 z"
         style="stroke-width:0.211192"
         id="path255" />
      <path
         d="m 69.920121,18.938686 v 4.788943 h 1.006462 q 1.274577,0 1.864429,-0.577478 0.593978,-0.577478 0.593978,-1.823181 0,-1.237453 -0.593978,-1.810806 -0.589852,-0.577478 -1.864429,-0.577478 z m -0.833219,-0.684725 h 1.711811 q 1.790182,0 2.627525,0.746597 0.837344,0.742472 0.837344,2.326412 0,1.59219 -0.841469,2.338787 -0.841468,0.746597 -2.6234,0.746597 h -1.711811 z"
         style="stroke-width:0.211192"
         id="path257" />
      <path
         d="m 80.335352,19.074805 -1.130208,3.064759 h 2.26454 z m -0.470233,-0.820844 h 0.94459 l 2.347036,6.158393 h -0.866217 l -0.560979,-1.579816 h -2.77602 l -0.560979,1.579816 h -0.878592 z"
         style="stroke-width:0.211192"
         id="path259" />
      <path
         d="m 86.699986,20.502001 q -0.12787,-0.07425 -0.280489,-0.107246 -0.148494,-0.03712 -0.329988,-0.03712 -0.643475,0 -0.989962,0.420734 -0.342362,0.416609 -0.342362,1.20033 v 2.433658 h -0.763096 v -4.619826 h 0.763096 v 0.717723 q 0.239241,-0.420734 0.622851,-0.622851 0.383611,-0.206243 0.932215,-0.206243 0.07837,0 0.173243,0.01238 0.09487,0.0083 0.210367,0.02887 z"
         style="stroke-width:0.211192"
         id="path261" />
      <path
         d="m 90.024609,20.502001 q -0.12787,-0.07425 -0.280489,-0.107246 -0.148494,-0.03712 -0.329987,-0.03712 -0.643476,0 -0.989963,0.420734 -0.342362,0.416609 -0.342362,1.20033 v 2.433658 h -0.763096 v -4.619826 h 0.763096 v 0.717723 q 0.239241,-0.420734 0.622851,-0.622851 0.383611,-0.206243 0.932215,-0.206243 0.07837,0 0.173244,0.01238 0.09487,0.0083 0.210367,0.02887 z"
         style="stroke-width:0.211192"
         id="path263" />
      <path
         d="m 92.920251,22.090066 q -0.91984,0 -1.274577,0.210367 -0.354736,0.210367 -0.354736,0.717723 0,0.404235 0.26399,0.643476 0.268114,0.235116 0.725972,0.235116 0.631101,0 1.010587,-0.445483 0.38361,-0.449608 0.38361,-1.19208 v -0.169119 z m 1.513818,-0.313488 v 2.635776 H 93.675097 V 23.71113 q -0.259865,0.420734 -0.6476,0.622851 -0.387735,0.197993 -0.948714,0.197993 -0.709473,0 -1.130207,-0.395985 -0.41661,-0.40011 -0.41661,-1.068335 0,-0.779595 0.519731,-1.17558 0.523855,-0.395985 1.559191,-0.395985 h 1.064209 v -0.07425 q 0,-0.523856 -0.346486,-0.80847 -0.342363,-0.288739 -0.965214,-0.288739 -0.395985,0 -0.771346,0.09487 -0.375361,0.09487 -0.721847,0.284614 v -0.701224 q 0.416609,-0.160869 0.808469,-0.239241 0.39186,-0.0825 0.763096,-0.0825 1.002337,0 1.497318,0.519731 0.494982,0.51973 0.494982,1.57569 z"
         style="stroke-width:0.211192"
         id="path265" />
      <path
         d="m 97.919562,24.841337 q -0.321738,0.824969 -0.626976,1.076585 -0.305238,0.251615 -0.816719,0.251615 h -0.606352 v -0.635226 h 0.445483 q 0.313488,0 0.486732,-0.148494 0.173243,-0.148495 0.38361,-0.701224 l 0.13612,-0.346487 -1.868554,-4.545578 h 0.804344 l 1.443696,3.613364 1.443695,-3.613364 h 0.804345 z"
         style="stroke-width:0.211192"
         id="path267" />
    </g>
    <g
       aria-label="3D Array"
       id="text1264"
       style="font-style:normal;font-weight:normal;font-size:8.44768px;line-height:1.25;font-family:sans-serif;fill:#000000;fill-opacity:1;stroke:none;stroke-width:0.211192">
      <path
         d="m 135.89335,20.8638 q 0.5981,0.12787 0.93222,0.532105 0.33823,0.404235 0.33823,0.998212 0,0.911591 -0.62697,1.410697 -0.62698,0.499106 -1.78193,0.499106 -0.38774,0 -0.80022,-0.07837 -0.40836,-0.07425 -0.8456,-0.226867 v -0.804344 q 0.34649,0.202117 0.75897,0.305238 0.41249,0.103121 0.8621,0.103121 0.78372,0 1.19208,-0.309363 0.41248,-0.309363 0.41248,-0.899216 0,-0.544479 -0.38361,-0.849718 -0.37949,-0.309363 -1.06009,-0.309363 h -0.71772 v -0.684724 h 0.75072 q 0.61461,0 0.94047,-0.243366 0.32586,-0.247491 0.32586,-0.709473 0,-0.474357 -0.33824,-0.725973 -0.33411,-0.25574 -0.96109,-0.25574 -0.34236,0 -0.73422,0.07425 -0.39186,0.07425 -0.86209,0.230992 v -0.742472 q 0.47436,-0.131995 0.88684,-0.197993 0.41661,-0.066 0.78372,-0.066 0.94872,0 1.50145,0.433108 0.55272,0.428984 0.55272,1.163206 0,0.511481 -0.29286,0.866217 -0.29286,0.350612 -0.83322,0.486732 z"
         style="stroke-width:0.211192"
         id="path270" />
      <path
         d="m 139.50259,18.710632 v 4.788943 h 1.00646 q 1.27458,0 1.86443,-0.577478 0.59398,-0.577478 0.59398,-1.823181 0,-1.237453 -0.59398,-1.810806 -0.58985,-0.577478 -1.86443,-0.577478 z m -0.83322,-0.684725 h 1.71181 q 1.79018,0 2.62753,0.746597 0.83734,0.742472 0.83734,2.326412 0,1.59219 -0.84147,2.338787 -0.84146,0.746596 -2.6234,0.746596 h -1.71181 z"
         style="stroke-width:0.211192"
         id="path272" />
      <path
         d="m 149.91782,18.846751 -1.13021,3.064759 h 2.26454 z m -0.47023,-0.820844 h 0.94459 l 2.34703,6.158392 H 151.873 l -0.56098,-1.579815 H 148.536 l -0.56098,1.579815 h -0.87859 z"
         style="stroke-width:0.211192"
         id="path274" />
      <path
         d="m 156.28246,20.273947 q -0.12787,-0.07425 -0.28049,-0.107246 -0.1485,-0.03712 -0.32999,-0.03712 -0.64348,0 -0.98996,0.420734 -0.34237,0.416609 -0.34237,1.20033 v 2.433657 h -0.76309 v -4.619825 h 0.76309 v 0.717723 q 0.23925,-0.420734 0.62286,-0.622851 0.38361,-0.206243 0.93221,-0.206243 0.0784,0 0.17324,0.01238 0.0949,0.0083 0.21037,0.02887 z"
         style="stroke-width:0.211192"
         id="path276" />
      <path
         d="m 159.60708,20.273947 q -0.12787,-0.07425 -0.28049,-0.107246 -0.14849,-0.03712 -0.32999,-0.03712 -0.64347,0 -0.98996,0.420734 -0.34236,0.416609 -0.34236,1.20033 v 2.433657 h -0.7631 v -4.619825 h 0.7631 v 0.717723 q 0.23924,-0.420734 0.62285,-0.622851 0.38361,-0.206243 0.93221,-0.206243 0.0784,0 0.17325,0.01238 0.0949,0.0083 0.21036,0.02887 z"
         style="stroke-width:0.211192"
         id="path278" />
      <path
         d="m 162.50272,21.862012 q -0.91984,0 -1.27458,0.210367 -0.35473,0.210367 -0.35473,0.717723 0,0.404235 0.26399,0.643476 0.26811,0.235116 0.72597,0.235116 0.6311,0 1.01059,-0.445483 0.38361,-0.449608 0.38361,-1.19208 v -0.169119 z m 1.51382,-0.313488 v 2.635775 h -0.75897 v -0.701223 q -0.25987,0.420734 -0.6476,0.622851 -0.38774,0.197993 -0.94872,0.197993 -0.70947,0 -1.1302,-0.395985 -0.41661,-0.40011 -0.41661,-1.068335 0,-0.779595 0.51973,-1.17558 0.52385,-0.395985 1.55919,-0.395985 h 1.06421 v -0.07425 q 0,-0.523856 -0.34649,-0.80847 -0.34236,-0.288739 -0.96521,-0.288739 -0.39599,0 -0.77135,0.09487 -0.37536,0.09487 -0.72185,0.284615 v -0.701224 q 0.41661,-0.160869 0.80847,-0.239241 0.39186,-0.0825 0.7631,-0.0825 1.00234,0 1.49732,0.519731 0.49498,0.51973 0.49498,1.57569 z"
         style="stroke-width:0.211192"
         id="path280" />
      <path
         d="m 167.50203,24.613283 q -0.32174,0.824969 -0.62697,1.076585 -0.30524,0.251615 -0.81672,0.251615 h -0.60636 v -0.635226 h 0.44549 q 0.31349,0 0.48673,-0.148494 0.17324,-0.148495 0.38361,-0.701224 l 0.13612,-0.346487 -1.86855,-4.545578 h 0.80434 l 1.4437,3.613364 1.44369,-3.613364 h 0.80435 z"
         style="stroke-width:0.211192"
         id="path282" />
    </g>
    <g
       aria-label="axis=0 &gt;"
       id="text1268"
       style="font-style:normal;font-weight:normal;font-size:8.44768px;line-height:1.25;font-family:sans-serif;fill:#228b22;fill-opacity:1;stroke:none;stroke-width:0.211192">
      <path
         d="m 24.136722,52.057016 q -0.91984,0 -1.274577,0.210367 -0.354737,0.210367 -0.354737,0.717723 0,0.404234 0.26399,0.643475 0.268115,0.235116 0.725973,0.235116 0.631101,0 1.010587,-0.445483 0.38361,-0.449608 0.38361,-1.19208 v -0.169118 z m 1.513817,-0.313488 v 2.635775 H 24.891568 V 53.67808 q -0.259865,0.420734 -0.6476,0.622851 -0.387736,0.197992 -0.948714,0.197992 -0.709474,0 -1.130208,-0.395985 -0.416609,-0.400109 -0.416609,-1.068334 0,-0.779596 0.51973,-1.175581 0.523856,-0.395985 1.559191,-0.395985 h 1.06421 v -0.07425 q 0,-0.523855 -0.346487,-0.808469 -0.342362,-0.288739 -0.965213,-0.288739 -0.395985,0 -0.771346,0.09487 -0.375361,0.09487 -0.721848,0.284614 v -0.701223 q 0.416609,-0.160869 0.80847,-0.239241 0.39186,-0.0825 0.763096,-0.0825 1.002337,0 1.497318,0.51973 0.494981,0.519731 0.494981,1.575691 z"
         style="fill:#228b22;stroke-width:0.211192"
         id="path285" />
      <path
         d="m 31.054085,49.759478 -1.670562,2.24804 1.757184,2.371785 h -0.895091 l -1.3447,-1.814931 -1.344699,1.814931 h -0.895091 l 1.794307,-2.417159 -1.641688,-2.202666 h 0.895092 l 1.225078,1.645812 1.225079,-1.645812 z"
         style="fill:#228b22;stroke-width:0.211192"
         id="path287" />
      <path
         d="m 32.213166,49.759478 h 0.758972 v 4.619825 h -0.758972 z m 0,-1.798432 h 0.758972 v 0.961088 h -0.758972 z"
         style="fill:#228b22;stroke-width:0.211192"
         id="path289" />
      <path
         d="m 37.505341,49.895598 v 0.717722 q -0.321738,-0.164993 -0.668225,-0.24749 -0.346486,-0.0825 -0.717722,-0.0825 -0.565104,0 -0.849718,0.173243 -0.28049,0.173244 -0.28049,0.519731 0,0.26399 0.202118,0.416609 0.202117,0.148494 0.812594,0.284614 l 0.259865,0.05775 q 0.80847,0.173243 1.146707,0.490856 0.342362,0.313489 0.342362,0.878592 0,0.643476 -0.511481,1.018837 -0.507356,0.37536 -1.398322,0.37536 -0.371236,0 -0.775471,-0.07425 -0.400109,-0.07012 -0.845593,-0.214492 v -0.78372 q 0.420734,0.218617 0.829094,0.329988 0.40836,0.107245 0.808469,0.107245 0.53623,0 0.824969,-0.181493 0.288739,-0.185618 0.288739,-0.51973 0,-0.309363 -0.210367,-0.474357 -0.206242,-0.164994 -0.91159,-0.317613 l -0.26399,-0.06187 q -0.705349,-0.148494 -1.018837,-0.453733 -0.313488,-0.309363 -0.313488,-0.845593 0,-0.651725 0.461983,-1.006461 0.461982,-0.354737 1.3117,-0.354737 0.420734,0 0.79197,0.06187 0.371236,0.06187 0.684724,0.185618 z"
         style="fill:#228b22;stroke-width:0.211192"
         id="path291" />
      <path
         d="m 39.060407,50.543198 h 5.28805 v 0.692974 h -5.28805 z m 0,1.682936 h 5.28805 v 0.701224 h -5.28805 z"
         style="fill:#228b22;stroke-width:0.211192"
         id="path293" />
      <path
         d="m 47.928821,48.769515 q -0.643476,0 -0.969338,0.635226 -0.321738,0.631101 -0.321738,1.901553 0,1.266327 0.321738,1.901553 0.325862,0.631101 0.969338,0.631101 0.6476,0 0.969338,-0.631101 0.325863,-0.635226 0.325863,-1.901553 0,-1.270452 -0.325863,-1.901553 -0.321738,-0.635226 -0.969338,-0.635226 z m 0,-0.659975 q 1.035336,0 1.579815,0.820844 0.548604,0.816719 0.548604,2.37591 0,1.555066 -0.548604,2.37591 -0.544479,0.816719 -1.579815,0.816719 -1.035336,0 -1.58394,-0.816719 -0.54448,-0.820844 -0.54448,-2.37591 0,-1.559191 0.54448,-2.37591 0.548604,-0.820844 1.58394,-0.820844 z"
         style="fill:#228b22;stroke-width:0.211192"
         id="path295" />
      <path
         d="m 54.198585,50.22146 v -0.750721 l 5.28805,1.918052 v 0.684724 l -5.28805,1.918053 v -0.750722 l 4.248589,-1.505568 z"
         style="fill:#228b22;stroke-width:0.211192"
         id="path297" />
    </g>
    <g
       aria-label="axis=1 &gt;"
       transform="rotate(-90)"
       id="text1272"
       style="font-style:normal;font-weight:normal;font-size:8.44768px;line-height:1.25;font-family:sans-serif;fill:#000000;fill-opacity:1;stroke:none;stroke-width:0.211192">
      <path
         d="m -95.526364,68.451135 q -0.91984,0 -1.274577,0.210367 -0.354737,0.210367 -0.354737,0.717723 0,0.404235 0.26399,0.643476 0.268115,0.235116 0.725973,0.235116 0.631101,0 1.010587,-0.445483 0.38361,-0.449608 0.38361,-1.19208 v -0.169119 z m 1.513818,-0.313488 v 2.635775 h -0.758972 v -0.701223 q -0.259865,0.420734 -0.6476,0.622851 -0.387736,0.197993 -0.948714,0.197993 -0.709474,0 -1.130208,-0.395985 -0.416609,-0.40011 -0.416609,-1.068335 0,-0.779595 0.51973,-1.17558 0.523856,-0.395985 1.559191,-0.395985 h 1.06421 v -0.07425 q 0,-0.523855 -0.346487,-0.808469 -0.342362,-0.288739 -0.965213,-0.288739 -0.395985,0 -0.771346,0.09487 -0.375361,0.09487 -0.721848,0.284615 v -0.701224 q 0.41661,-0.160869 0.80847,-0.239241 0.39186,-0.0825 0.763096,-0.0825 1.002337,0 1.497318,0.519731 0.494982,0.51973 0.494982,1.57569 z"
         style="fill:#ff4500;stroke-width:0.211192"
         id="path300" />
      <path
         d="m -88.609001,66.153597 -1.670562,2.24804 1.757184,2.371785 h -0.895091 l -1.344699,-1.814931 -1.3447,1.814931 h -0.895091 l 1.794307,-2.417158 -1.641688,-2.202667 h 0.895092 l 1.225078,1.645813 1.225079,-1.645813 z"
         style="fill:#ff4500;stroke-width:0.211192"
         id="path302" />
      <path
         d="m -87.44992,66.153597 h 0.758972 v 4.619825 h -0.758972 z m 0,-1.798432 h 0.758972 v 0.961089 h -0.758972 z"
         style="fill:#ff4500;stroke-width:0.211192"
         id="path304" />
      <path
         d="m -82.157745,66.289717 v 0.717723 q -0.321738,-0.164994 -0.668224,-0.247491 -0.346487,-0.0825 -0.717723,-0.0825 -0.565104,0 -0.849718,0.173244 -0.28049,0.173243 -0.28049,0.51973 0,0.26399 0.202118,0.416609 0.202117,0.148495 0.812594,0.284614 l 0.259865,0.05775 q 0.80847,0.173244 1.146707,0.490857 0.342362,0.313488 0.342362,0.878591 0,0.643476 -0.511481,1.018837 -0.507356,0.375361 -1.398322,0.375361 -0.371236,0 -0.775471,-0.07425 -0.400109,-0.07012 -0.845593,-0.214492 v -0.783721 q 0.420735,0.218617 0.829094,0.329988 0.40836,0.107246 0.80847,0.107246 0.536229,0 0.824968,-0.181493 0.288739,-0.185618 0.288739,-0.519731 0,-0.309363 -0.210367,-0.474357 -0.206242,-0.164994 -0.91159,-0.317613 l -0.26399,-0.06187 q -0.705349,-0.148495 -1.018837,-0.453733 -0.313488,-0.309364 -0.313488,-0.845593 0,-0.651726 0.461983,-1.006462 0.461982,-0.354737 1.3117,-0.354737 0.420734,0 0.79197,0.06187 0.371236,0.06187 0.684724,0.185618 z"
         style="fill:#ff4500;stroke-width:0.211192"
         id="path306" />
      <path
         d="m -80.602679,66.937317 h 5.28805 v 0.692974 h -5.28805 z m 0,1.682937 h 5.28805 v 0.701223 h -5.28805 z"
         style="fill:#ff4500;stroke-width:0.211192"
         id="path308" />
      <path
         d="m -73.371828,70.072199 h 1.361198 v -4.698198 l -1.480819,0.296989 v -0.758971 l 1.47257,-0.296989 h 0.833218 v 5.457169 h 1.361199 v 0.701223 h -3.547366 z"
         style="fill:#ff4500;stroke-width:0.211192"
         id="path310" />
      <path
         d="m -65.464501,66.61558 v -0.750722 l 5.28805,1.918052 v 0.684724 l -5.28805,1.918053 v -0.750722 l 4.248589,-1.505568 z"
         style="fill:#ff4500;stroke-width:0.211192"
         id="path312" />
    </g>
    <g
       aria-label="axis=2 &gt;"
       transform="rotate(-45)"
       id="text1276"
       style="font-style:normal;font-weight:normal;font-size:8.44768px;line-height:1.25;font-family:sans-serif;fill:#000000;fill-opacity:1;stroke:none;stroke-width:0.211192">
      <path
         d="m 3.02867,126.63944 q -0.9198402,0 -1.2745768,0.21037 -0.3547366,0.21037 -0.3547366,0.71772 0,0.40424 0.2639901,0.64348 0.2681148,0.23512 0.7259725,0.23512 0.6311011,0 1.0105868,-0.44549 0.3836105,-0.44961 0.3836105,-1.19208 v -0.16912 z m 1.5138178,-0.31348 v 2.63577 H 3.7835165 v -0.70122 q -0.2598652,0.42073 -0.6476005,0.62285 -0.3877354,0.19799 -0.9487142,0.19799 -0.7094731,0 -1.1302072,-0.39598 -0.41660925,-0.40011 -0.41660925,-1.06834 0,-0.77959 0.51973035,-1.17558 0.5238552,-0.39598 1.559191,-0.39598 h 1.0642098 v -0.0742 q 0,-0.52386 -0.3464869,-0.80847 -0.3423621,-0.28874 -0.9652135,-0.28874 -0.395985,0 -0.7713459,0.0949 -0.3753608,0.0949 -0.72184765,0.28462 v -0.70123 q 0.41660925,-0.16087 0.80846945,-0.23924 0.3918602,-0.0825 0.7630961,-0.0825 1.0023371,0 1.4973184,0.51974 0.4949813,0.51973 0.4949813,1.57569 z"
         style="fill:#8b0000;stroke-width:0.211192"
         id="path315" />
      <path
         d="m 9.9460333,124.34191 -1.6705618,2.24804 1.7571835,2.37178 H 9.1375639 L 7.7928647,127.1468 6.4481656,128.96173 H 5.5530745 l 1.7943071,-2.41716 -1.6416879,-2.20266 h 0.8950911 l 1.2250787,1.64581 1.2250787,-1.64581 z"
         style="fill:#8b0000;stroke-width:0.211192"
         id="path317" />
      <path
         d="m 11.105115,124.34191 h 0.758971 v 4.61982 h -0.758971 z m 0,-1.79844 h 0.758971 v 0.96109 h -0.758971 z"
         style="fill:#8b0000;stroke-width:0.211192"
         id="path319" />
      <path
         d="m 16.397289,124.47803 v 0.71772 q -0.321737,-0.165 -0.668224,-0.24749 -0.346487,-0.0825 -0.717723,-0.0825 -0.565104,0 -0.849718,0.17324 -0.280489,0.17325 -0.280489,0.51973 0,0.26399 0.202117,0.41661 0.202117,0.1485 0.812594,0.28462 l 0.259865,0.0577 q 0.80847,0.17324 1.146707,0.49085 0.342362,0.31349 0.342362,0.87859 0,0.64348 -0.511481,1.01884 -0.507355,0.37536 -1.398322,0.37536 -0.371236,0 -0.77547,-0.0742 -0.40011,-0.0701 -0.845593,-0.21449 v -0.78372 q 0.420734,0.21862 0.829093,0.32999 0.40836,0.10725 0.80847,0.10725 0.536229,0 0.824969,-0.1815 0.288739,-0.18562 0.288739,-0.51973 0,-0.30936 -0.210367,-0.47436 -0.206243,-0.16499 -0.911591,-0.31761 l -0.26399,-0.0619 q -0.705348,-0.1485 -1.018836,-0.45373 -0.313489,-0.30937 -0.313489,-0.8456 0,-0.65172 0.461983,-1.00646 0.461982,-0.35474 1.3117,-0.35474 0.420734,0 0.79197,0.0619 0.371236,0.0619 0.684724,0.18562 z"
         style="fill:#8b0000;stroke-width:0.211192"
         id="path321" />
      <path
         d="m 17.952355,125.12563 h 5.28805 v 0.69297 h -5.28805 z m 0,1.68293 h 5.28805 v 0.70123 h -5.28805 z"
         style="fill:#8b0000;stroke-width:0.211192"
         id="path323" />
      <path
         d="m 25.756559,128.26051 h 2.908015 v 0.70122 h -3.910352 v -0.70122 q 0.474357,-0.49086 1.291077,-1.31583 0.820843,-0.82909 1.03121,-1.06833 0.40011,-0.44961 0.556854,-0.75897 0.160869,-0.31349 0.160869,-0.61461 0,-0.49085 -0.346487,-0.80022 -0.342362,-0.30936 -0.895091,-0.30936 -0.39186,0 -0.829093,0.13612 -0.433109,0.13612 -0.92809,0.41249 v -0.84147 q 0.503231,-0.20212 0.940464,-0.30524 0.437234,-0.10312 0.80022,-0.10312 0.956964,0 1.526192,0.47848 0.569229,0.47848 0.569229,1.2787 0,0.37949 -0.14437,0.72185 -0.140245,0.33824 -0.515605,0.80022 -0.103121,0.11962 -0.655851,0.69297 -0.552729,0.56923 -1.559191,1.59632 z"
         style="fill:#8b0000;stroke-width:0.211192"
         id="path325" />
      <path
         d="m 33.090533,124.80389 v -0.75072 l 5.28805,1.91805 v 0.68472 l -5.28805,1.91806 v -0.75073 l 4.248589,-1.50556 z"
         style="fill:#8b0000;stroke-width:0.211192"
         id="path327" />
    </g>
    <g
       id="text1278"
       style="font-style:normal;font-weight:normal;font-size:10.5833px;line-height:1.25;font-family:sans-serif;white-space:pre;shape-inside:url(#rect1280);fill:#000000;fill-opacity:1;stroke:none" />
    <g
       id="g1212"
       transform="translate(112.44382,13.0376)"
       style="display:inline">
      <path
         id="rect1206"
         style="opacity:0.993;fill:#f4a460;stroke:#3b2313;stroke-width:0.370398;stroke-linecap:round;stroke-linejoin:round;stroke-miterlimit:4;stroke-dasharray:2.22239, 0.370398;stroke-dashoffset:0"
         d="M 10.447944,30.607092 H 24.298959 V 44.458107 H 10.447944 Z" />
      <g
         aria-label="1"
         id="text1210"
         style="font-style:normal;font-weight:normal;font-size:10.5833px;line-height:1.25;font-family:sans-serif;fill:#000000;fill-opacity:1;stroke:none;stroke-width:0.264583">
        <path
           d="M 15.570723,40.279817 H 17.27604 V 34.39389 l -1.855178,0.372069 v -0.950843 l 1.844843,-0.372069 h 1.043861 v 6.83677 h 1.705317 v 0.878497 h -4.44416 z"
           style="fill:#8b0000;stroke-width:0.264583"
           id="path332" />
      </g>
    </g>
    <g
       id="g1220"
       transform="translate(126.29485,13.0376)"
       style="display:inline">
      <path
         id="rect1214"
         style="opacity:0.993;fill:#f4a460;stroke:#3b2313;stroke-width:0.370398;stroke-linecap:round;stroke-linejoin:round;stroke-miterlimit:4;stroke-dasharray:2.22239, 0.370398;stroke-dashoffset:0"
         d="M 10.447944,30.607092 H 24.298959 V 44.458107 H 10.447944 Z" />
      <g
         aria-label="2"
         id="text1218"
         style="font-style:normal;font-weight:normal;font-size:10.5833px;line-height:1.25;font-family:sans-serif;fill:#000000;fill-opacity:1;stroke:none;stroke-width:0.264583">
        <path
           d="M 16.289024,40.279817 H 19.9322 v 0.878497 h -4.89891 v -0.878497 q 0.594277,-0.614947 1.617467,-1.648473 1.028358,-1.038693 1.291907,-1.338415 0.50126,-0.563271 0.69763,-0.950843 0.201537,-0.39274 0.201537,-0.769977 0,-0.614947 -0.43408,-1.002519 -0.428913,-0.387572 -1.121375,-0.387572 -0.490925,0 -1.038693,0.170531 -0.542601,0.170532 -1.162716,0.516763 v -1.054196 q 0.63045,-0.253214 1.178218,-0.382404 0.547769,-0.129191 1.00252,-0.129191 1.198889,0 1.912022,0.599445 0.713132,0.599444 0.713132,1.601964 0,0.475422 -0.180866,0.904335 -0.1757,0.423745 -0.645954,1.002519 -0.12919,0.149862 -0.821652,0.868162 -0.692462,0.713132 -1.953363,1.999871 z"
           style="stroke-width:0.264583"
           id="path336" />
      </g>
    </g>
    <g
       id="g1228"
       transform="translate(140.14587,13.0376)"
       style="display:inline">
      <path
         id="rect1222"
         style="opacity:0.993;fill:#f4a460;stroke:#3b2313;stroke-width:0.370398;stroke-linecap:round;stroke-linejoin:round;stroke-miterlimit:4;stroke-dasharray:2.22239, 0.370398;stroke-dashoffset:0"
         d="M 10.447944,30.607092 H 24.298959 V 44.458107 H 10.447944 Z" />
      <g
         aria-label="3"
         id="text1226"
         style="font-style:normal;font-weight:normal;font-size:10.5833px;line-height:1.25;font-family:sans-serif;fill:#000000;fill-opacity:1;stroke:none;stroke-width:0.264583">
        <path
           d="m 18.552444,36.998374 q 0.749306,0.160197 1.167884,0.666624 0.423745,0.506427 0.423745,1.250566 0,1.142045 -0.785479,1.767328 -0.785479,0.625283 -2.232415,0.625283 -0.485757,0 -1.002519,-0.09819 -0.511595,-0.09302 -1.059364,-0.284219 v -1.007688 q 0.434081,0.253214 0.950843,0.382405 0.516763,0.12919 1.080034,0.12919 0.981849,0 1.493445,-0.387572 0.516762,-0.387572 0.516762,-1.126542 0,-0.682127 -0.480589,-1.064531 -0.475422,-0.387572 -1.32808,-0.387572 h -0.899167 v -0.857826 h 0.940508 q 0.769976,0 1.178219,-0.30489 0.408242,-0.310058 0.408242,-0.888832 0,-0.594277 -0.423745,-0.909503 -0.418578,-0.320392 -1.204057,-0.320392 -0.428913,0 -0.919838,0.09302 -0.490924,0.09302 -1.080034,0.289387 v -0.930173 q 0.594277,-0.165364 1.11104,-0.248046 0.52193,-0.08268 0.981849,-0.08268 1.188554,0 1.881016,0.542601 0.692462,0.537433 0.692462,1.457271 0,0.640785 -0.366901,1.085201 -0.366902,0.439249 -1.043861,0.60978 z"
           style="stroke-width:0.264583"
           id="path340" />
      </g>
    </g>
    <g
       id="g1236"
       transform="translate(112.44382,26.888615)"
       style="display:inline">
      <path
         id="rect1230"
         style="opacity:0.993;fill:#f4a460;stroke:#3b2313;stroke-width:0.370398;stroke-linecap:round;stroke-linejoin:round;stroke-miterlimit:4;stroke-dasharray:2.22239, 0.370398;stroke-dashoffset:0"
         d="M 10.447944,30.607092 H 24.298959 V 44.458107 H 10.447944 Z" />
      <g
         aria-label="4"
         id="text1234"
         style="font-style:normal;font-weight:normal;font-size:10.5833px;line-height:1.25;font-family:sans-serif;fill:#000000;fill-opacity:1;stroke:none;stroke-width:0.264583">
        <path
           d="M 18.257889,34.352549 15.6224,38.471148 h 2.635489 z m -0.273884,-0.909502 h 1.312577 v 5.028101 h 1.100705 v 0.868161 h -1.100705 v 1.819005 h -1.038693 v -1.819005 h -3.48298 v -1.007687 z"
           style="stroke-width:0.264583"
           id="path344" />
      </g>
    </g>
    <g
       id="g1244"
       transform="translate(126.29485,26.888615)"
       style="display:inline">
      <path
         id="rect1238"
         style="opacity:0.993;fill:#f4a460;stroke:#3b2313;stroke-width:0.370398;stroke-linecap:round;stroke-linejoin:round;stroke-miterlimit:4;stroke-dasharray:2.22239, 0.370398;stroke-dashoffset:0"
         d="M 10.447944,30.607092 H 24.298959 V 44.458107 H 10.447944 Z" />
      <g
         aria-label="5"
         id="text1242"
         style="font-style:normal;font-weight:normal;font-size:10.5833px;line-height:1.25;font-family:sans-serif;fill:#000000;fill-opacity:1;stroke:none;stroke-width:0.264583">
        <path
           d="m 15.400192,33.443047 h 4.097928 v 0.878497 h -3.141917 v 1.891351 q 0.227375,-0.07751 0.454751,-0.113688 0.227375,-0.04134 0.454751,-0.04134 1.291907,0 2.04638,0.707965 0.754474,0.707965 0.754474,1.91719 0,1.245398 -0.775144,1.93786 -0.775144,0.687294 -2.185906,0.687294 -0.485757,0 -0.992185,-0.08268 -0.501259,-0.08268 -1.038693,-0.248046 v -1.049028 q 0.465087,0.253213 0.961179,0.377236 0.496092,0.124023 1.049028,0.124023 0.894,0 1.41593,-0.470254 0.52193,-0.470254 0.52193,-1.276403 0,-0.80615 -0.52193,-1.276404 -0.52193,-0.470254 -1.41593,-0.470254 -0.418578,0 -0.837155,0.09302 -0.413411,0.09302 -0.847491,0.289387 z"
           style="stroke-width:0.264583"
           id="path348" />
      </g>
    </g>
    <g
       id="g1252"
       transform="translate(140.14587,26.888615)"
       style="display:inline">
      <path
         id="rect1246"
         style="opacity:0.993;fill:#f4a460;stroke:#3b2313;stroke-width:0.370398;stroke-linecap:round;stroke-linejoin:round;stroke-miterlimit:4;stroke-dasharray:2.22239, 0.370398;stroke-dashoffset:0"
         d="M 10.447944,30.607092 H 24.298959 V 44.458107 H 10.447944 Z" />
      <g
         aria-label="6"
         id="text1250"
         style="font-style:normal;font-weight:normal;font-size:10.5833px;line-height:1.25;font-family:sans-serif;fill:#000000;fill-opacity:1;stroke:none;stroke-width:0.264583">
        <path
           d="m 17.751462,36.884686 q -0.702797,0 -1.116207,0.48059 -0.408243,0.480589 -0.408243,1.317745 0,0.831987 0.408243,1.317744 0.41341,0.48059 1.116207,0.48059 0.702797,0 1.11104,-0.48059 0.41341,-0.485757 0.41341,-1.317744 0,-0.837156 -0.41341,-1.317745 -0.408243,-0.48059 -1.11104,-0.48059 z m 2.072218,-3.271107 v 0.950843 q -0.392739,-0.186035 -0.795814,-0.284219 -0.397907,-0.09819 -0.790647,-0.09819 -1.033525,0 -1.581294,0.697629 -0.542601,0.69763 -0.620115,2.108392 0.30489,-0.449584 0.764809,-0.687294 0.459918,-0.242879 1.012855,-0.242879 1.162716,0 1.834507,0.707965 0.676959,0.702797 0.676959,1.91719 0,1.188554 -0.702797,1.906854 -0.702797,0.7183 -1.870681,0.7183 -1.338415,0 -2.04638,-1.02319 -0.707965,-1.028358 -0.707965,-2.976553 0,-1.82934 0.868161,-2.914542 0.868162,-1.090369 2.3306,-1.090369 0.39274,0 0.790647,0.07751 0.403075,0.07752 0.837155,0.232544 z"
           style="stroke-width:0.264583"
           id="path352" />
      </g>
    </g>
  </g>
</svg>
